<?xml version="1.0" encoding="UTF-8" standalone="no"?>
<svg
   sodipodi:docname="launcher_fg.svg"
   inkscape:version="1.1.2 (0a00cf5339, 2022-02-04, custom)"
   id="svg918"
   version="1.1"
   viewBox="0 0 28.575001 28.575001"
   height="108"
   width="108"
   xmlns:inkscape="http://www.inkscape.org/namespaces/inkscape"
   xmlns:sodipodi="http://sodipodi.sourceforge.net/DTD/sodipodi-0.dtd"
   xmlns="http://www.w3.org/2000/svg"
   xmlns:svg="http://www.w3.org/2000/svg"
   xmlns:rdf="http://www.w3.org/1999/02/22-rdf-syntax-ns#"
   xmlns:cc="http://creativecommons.org/ns#"
   xmlns:dc="http://purl.org/dc/elements/1.1/">
  <defs
     id="defs912" />
  <sodipodi:namedview
     inkscape:window-maximized="0"
     inkscape:window-y="23"
     inkscape:window-x="26"
     inkscape:window-height="1039"
     inkscape:window-width="1920"
     fit-margin-bottom="0"
     fit-margin-right="0"
     fit-margin-left="0"
     fit-margin-top="0"
     showgrid="false"
     inkscape:document-rotation="0"
     inkscape:current-layer="text847"
     inkscape:document-units="mm"
     inkscape:cy="48.017576"
     inkscape:cx="38.245947"
     inkscape:zoom="4.7586742"
     inkscape:pageshadow="2"
     inkscape:pageopacity="0.0"
     borderopacity="1.0"
     bordercolor="#666666"
     pagecolor="#ffffff"
     id="base"
     units="px"
     inkscape:pagecheckerboard="0" />
  <metadata
     id="metadata915">
    <rdf:RDF>
      <cc:Work
         rdf:about="">
        <dc:format>image/svg+xml</dc:format>
        <dc:type
           rdf:resource="http://purl.org/dc/dcmitype/StillImage" />
      </cc:Work>
    </rdf:RDF>
  </metadata>
  <g
     inkscape:groupmode="layer"
     id="layer2"
     inkscape:label="AreaForeground"
     style="display:none">
    <path
       transform="translate(-9.6647529,-102.09892)"
       inkscape:export-ydpi="13.699535"
       inkscape:export-xdpi="13.699535"
       inkscape:export-filename="/home/rainbyte/Local/Proyectos/irda/source_git/EdifierR1280DB/app/src/main/res/mipmap/ic_icon.png"
       d="m 23.687709,106.59684 a 9.5250026,9.5250026 0 0 0 -9.52504,9.52505 9.5250026,9.5250026 0 0 0 9.52504,9.52494 9.5250026,9.5250026 0 0 0 9.52496,-9.52494 9.5250026,9.5250026 0 0 0 -9.52496,-9.52505 z"
       style="display:inline;fill:#99ffff;fill-opacity:1;stroke:none;stroke-width:0.160542;stroke-miterlimit:4;stroke-dasharray:none;stroke-dashoffset:0;stroke-opacity:1"
       id="rect1584-2" />
  </g>
  <g
     style="display:inline"
     transform="translate(-9.664753,-102.09892)"
     id="layer1"
     inkscape:groupmode="layer"
     inkscape:label="IconForeground">
    <text
       id="text1513"
       y="83.086975"
       x="55.412334"
       style="font-style:normal;font-weight:normal;font-size:10.5833px;line-height:1.25;font-family:sans-serif;letter-spacing:0px;word-spacing:0px;fill:#000000;fill-opacity:1;stroke:none;stroke-width:0.264583"
       xml:space="preserve"><tspan
         style="stroke-width:0.264583"
         y="83.086975"
         x="55.412334"
         id="tspan1511"
         sodipodi:role="line" /></text>
    <g
       style="font-size:4.89361px;line-height:1.25;font-family:'Liberation Sans';-inkscape-font-specification:'Liberation Sans, Normal';letter-spacing:0px;word-spacing:0px;fill:#ff00ff;stroke:#000000;stroke-width:0.0849532;stroke-miterlimit:4;stroke-dasharray:none;stroke-opacity:1"
       id="text847"
       aria-label="HELLO">
      <g
         aria-label="RVC"
         id="text7819"
         style="font-size:5.64444px;stroke-width:0.1">
        <path
           d="m 21.128654,118.32945 -1.008723,-1.6123 h -1.209917 v 1.6123 h -0.52641 v -3.88331 h 1.827277 q 0.655946,0 1.01148,0.2949 0.358289,0.29215 0.358289,0.8158 0,0.43271 -0.253558,0.72761 -0.250803,0.2949 -0.694531,0.37207 l 1.10243,1.67293 z m -0.07717,-2.7671 q 0,-0.33899 -0.23151,-0.51538 -0.228754,-0.17915 -0.661458,-0.17915 h -1.248502 v 1.43316 h 1.270551 q 0.416167,0 0.642165,-0.19292 0.228754,-0.19568 0.228754,-0.54571 z"
           id="path8913" />
        <path
           d="M 24.050093,118.32945 H 23.50439 l -1.584742,-3.88331 h 0.55397 l 1.074869,2.73403 0.231511,0.68626 0.23151,-0.68626 1.069357,-2.73403 h 0.553971 z"
           id="path8915" />
        <path
           d="m 27.842451,114.81821 q -0.644921,0 -1.003211,0.41617 -0.35829,0.41341 -0.35829,1.1355 0,0.71383 0.37207,1.14929 0.374827,0.4327 1.01148,0.4327 0.815798,0 1.226453,-0.80753 l 0.429947,0.21497 q -0.239778,0.50161 -0.675238,0.76344 -0.432703,0.26182 -1.005967,0.26182 -0.587044,0 -1.016991,-0.24253 -0.427192,-0.24529 -0.65319,-0.69729 -0.223242,-0.45475 -0.223242,-1.07487 0,-0.92879 0.501606,-1.4552 0.501605,-0.52641 1.389061,-0.52641 0.620117,0 1.036284,0.24253 0.416167,0.24254 0.611848,0.71934 l -0.498849,0.16536 q -0.135048,-0.339 -0.43546,-0.51814 -0.297656,-0.17915 -0.708311,-0.17915 z"
           id="path8917" />
      </g>
    </g>
  </g>
</svg>
